<svg xmlns="http://www.w3.org/2000/svg" width="17.5" height="20" viewBox="106.25 747 17.5 20"><g data-name="plan icon"><g data-name="icon"><path d="M106.719 754.5h16.562a.47.47 0 0 1 .469.469v10.156c0 1.035-.84 1.875-1.875 1.875h-13.75a1.875 1.875 0 0 1-1.875-1.875v-10.156a.47.47 0 0 1 .469-.469Zm17.031-1.719v-1.406c0-1.035-.84-1.875-1.875-1.875H120v-2.031a.47.47 0 0 0-.469-.469h-1.562a.47.47 0 0 0-.469.469v2.031h-5v-2.031a.47.47 0 0 0-.469-.469h-1.562a.47.47 0 0 0-.469.469v2.031h-1.875c-1.035 0-1.875.84-1.875 1.875v1.406c0 .258.21.469.469.469h16.562a.47.47 0 0 0 .469-.469Z" fill="#767680" fill-rule="evenodd" data-name="Icon awesome-calendar"/><path d="M115.174 758.956c-1.009-.263-1.333-.532-1.333-.954 0-.484.447-.824 1.2-.824.791 0 1.084.378 1.111.933h.982c-.029-.767-.497-1.464-1.426-1.693v-.974h-1.334v.96c-.862.19-1.555.745-1.555 1.605 0 1.027.85 1.538 2.089 1.835 1.113.267 1.333.656 1.333 1.074 0 .304-.216.793-1.2.793-.916 0-1.278-.411-1.324-.933h-.98c.055.973.782 1.518 1.637 1.702v.964h1.334v-.955c.864-.167 1.555-.667 1.555-1.58 0-1.258-1.08-1.689-2.089-1.953Z" fill="#fff" fill-rule="evenodd" data-name="Icon metro-money"/></g></g></svg>