<svg xmlns="http://www.w3.org/2000/svg" width="18" height="10.225" viewBox="336.163 60.98 18 10.225"><g data-name="Filter"><g data-name="filter"><path d="M353.282 62.752h-16.239a.894.894 0 0 1-.88-.886c0-.481.39-.874.88-.886h16.24c.489.012.88.405.88.886 0 .48-.391.874-.88.886Z" fill-rule="evenodd" data-name="Path 10"/><path d="M350.321 66.978h-10.317a.898.898 0 0 1-.888-.886c0-.48.394-.874.888-.886h10.317a.898.898 0 0 1 .889.886.898.898 0 0 1-.889.886Z" fill-rule="evenodd" data-name="Path 11"/><path d="M346.64 71.205h-2.954a.886.886 0 0 1 0-1.772h2.953a.886.886 0 0 1 0 1.772Z" fill-rule="evenodd" data-name="Path 12"/></g></g></svg>