<svg xmlns="http://www.w3.org/2000/svg" width="23.529" height="28" viewBox="0 0 23.529 28">
  <path id="Icon_awesome-apple" data-name="Icon awesome-apple" d="M19.954,17.046a5.836,5.836,0,0,1,3.126-5.3,6.716,6.716,0,0,0-5.295-2.788c-2.219-.175-4.645,1.294-5.532,1.294-.938,0-3.088-1.231-4.776-1.231-3.488.056-7.2,2.782-7.2,8.327a15.58,15.58,0,0,0,.9,5.076c.8,2.294,3.688,7.92,6.7,7.826,1.575-.038,2.688-1.119,4.738-1.119,1.988,0,3.019,1.119,4.776,1.119,3.038-.044,5.651-5.157,6.414-7.458a6.2,6.2,0,0,1-3.857-5.745ZM16.415,6.782a5.888,5.888,0,0,0,1.5-4.532,6.628,6.628,0,0,0-4.245,2.182,5.98,5.98,0,0,0-1.6,4.495A5.25,5.25,0,0,0,16.415,6.782Z" transform="translate(-0.281 -2.25)"/>
</svg>
