<svg width="25" height="24" viewBox="0 0 25 24" fill="none" xmlns="http://www.w3.org/2000/svg">
<path d="M19.0342 19.5H15.0342" stroke="#EC3092" stroke-width="1.5" stroke-linecap="round" stroke-linejoin="round"/>
<path d="M17.0342 21.5V17.5" stroke="#EC3092" stroke-width="1.5" stroke-linecap="round" stroke-linejoin="round"/>
<path d="M12.6943 10.87C12.5943 10.86 12.4743 10.86 12.3643 10.87C9.98428 10.79 8.09428 8.84 8.09428 6.44C8.08428 3.99 10.0743 2 12.5243 2C14.9743 2 16.9643 3.99 16.9643 6.44C16.9643 8.84 15.0643 10.79 12.6943 10.87Z" stroke="#EC3092" stroke-width="1.5" stroke-linecap="round" stroke-linejoin="round"/>
<path d="M12.5242 21.81C10.7042 21.81 8.89422 21.35 7.51422 20.43C5.09422 18.81 5.09422 16.17 7.51422 14.56C10.2642 12.72 14.7742 12.72 17.5242 14.56" stroke="#EC3092" stroke-width="1.5" stroke-linecap="round" stroke-linejoin="round"/>
</svg>
