<svg width="15" height="16" viewBox="0 0 15 16" fill="none" xmlns="http://www.w3.org/2000/svg">
<g id="vuesax/linear/message">
<g id="message">
<path id="Vector" d="M5.24688 12.3581H4.94427C2.52342 12.3581 1.31299 11.7529 1.31299 8.72682V5.70074C1.31299 3.27989 2.52342 2.06946 4.94427 2.06946H9.78599C12.2068 2.06946 13.4173 3.27989 13.4173 5.70074V8.72682C13.4173 11.1477 12.2068 12.3581 9.78599 12.3581H9.48338C9.29577 12.3581 9.1142 12.4489 8.99921 12.6002L8.09139 13.8106C7.69195 14.3432 7.03832 14.3432 6.63888 13.8106L5.73105 12.6002C5.63422 12.467 5.41029 12.3581 5.24688 12.3581Z" stroke="#292D32" stroke-width="0.907822" stroke-miterlimit="10" stroke-linecap="round" stroke-linejoin="round"/>
<path id="Vector_2" d="M9.7839 7.51635H9.78934" stroke="#292D32" stroke-width="1.21043" stroke-linecap="round" stroke-linejoin="round"/>
<path id="Vector_3" d="M7.36227 7.51635H7.36771" stroke="#292D32" stroke-width="1.21043" stroke-linecap="round" stroke-linejoin="round"/>
<path id="Vector_4" d="M4.94088 7.51635H4.94632" stroke="#292D32" stroke-width="1.21043" stroke-linecap="round" stroke-linejoin="round"/>
</g>
</g>
</svg>
