<svg width="24" height="24" viewBox="0 0 24 24" fill="none" xmlns="http://www.w3.org/2000/svg">
<g id="majesticons:chat-line">
<path id="Vector" d="M12.0001 21C13.997 20.9997 15.9371 20.3353 17.515 19.1114C19.0929 17.8874 20.2189 16.1735 20.7157 14.2394C21.2126 12.3053 21.0521 10.2608 20.2596 8.42794C19.467 6.59504 18.0874 5.07779 16.3379 4.11504C14.5883 3.15229 12.5683 2.79873 10.5958 3.11002C8.62332 3.42131 6.81037 4.37977 5.44237 5.8345C4.07437 7.28923 3.22904 9.15762 3.03945 11.1455C2.84985 13.1334 3.32677 15.1279 4.39512 16.815L3.00012 21L7.18512 19.605C8.62465 20.5188 10.2951 21.0027 12.0001 21Z" stroke="#666666" stroke-width="2" stroke-linecap="round" stroke-linejoin="round"/>
</g>
</svg>
