<svg width="32" height="32" viewBox="0 0 32 32" fill="none" xmlns="http://www.w3.org/2000/svg">
<g id="Right Icon">
<path id="Oval" fill-rule="evenodd" clip-rule="evenodd" d="M16.0002 18.6666C17.4729 18.6666 18.6668 17.4727 18.6668 15.9999C18.6668 14.5272 17.4729 13.3333 16.0002 13.3333C14.5274 13.3333 13.3335 14.5272 13.3335 15.9999C13.3335 17.4727 14.5274 18.6666 16.0002 18.6666Z" stroke="#CCCCCC" stroke-linecap="round" stroke-linejoin="round"/>
<path id="Oval_2" fill-rule="evenodd" clip-rule="evenodd" d="M26.6667 18.6666C28.1394 18.6666 29.3333 17.4727 29.3333 15.9999C29.3333 14.5272 28.1394 13.3333 26.6667 13.3333C25.1939 13.3333 24 14.5272 24 15.9999C24 17.4727 25.1939 18.6666 26.6667 18.6666Z" stroke="#CCCCCC" stroke-linecap="round" stroke-linejoin="round"/>
<path id="Oval_3" fill-rule="evenodd" clip-rule="evenodd" d="M5.33317 18.6666C6.80593 18.6666 7.99984 17.4727 7.99984 15.9999C7.99984 14.5272 6.80593 13.3333 5.33317 13.3333C3.86041 13.3333 2.6665 14.5272 2.6665 15.9999C2.6665 17.4727 3.86041 18.6666 5.33317 18.6666Z" stroke="#CCCCCC" stroke-linecap="round" stroke-linejoin="round"/>
</g>
</svg>
