<svg width="25" height="24" viewBox="0 0 25 24" fill="none" xmlns="http://www.w3.org/2000/svg">
<g id="vuesax/linear/notification">
<g id="notification">
<path id="Vector" d="M12.52 2.91003C9.20997 2.91003 6.51997 5.60003 6.51997 8.91003V11.8C6.51997 12.41 6.25997 13.34 5.94997 13.86L4.79997 15.77C4.08997 16.95 4.57997 18.26 5.87997 18.7C10.19 20.14 14.84 20.14 19.15 18.7C20.36 18.3 20.89 16.87 20.23 15.77L19.08 13.86C18.78 13.34 18.52 12.41 18.52 11.8V8.91003C18.52 5.61003 15.82 2.91003 12.52 2.91003Z" stroke="#666666" stroke-width="1.5" stroke-miterlimit="10" stroke-linecap="round"/>
<path id="Vector_2" d="M14.37 3.19994C14.06 3.10994 13.74 3.03994 13.41 2.99994C12.45 2.87994 11.53 2.94994 10.67 3.19994C10.96 2.45994 11.68 1.93994 12.52 1.93994C13.36 1.93994 14.08 2.45994 14.37 3.19994Z" stroke="#666666" stroke-width="1.5" stroke-miterlimit="10" stroke-linecap="round" stroke-linejoin="round"/>
<path id="Vector_3" d="M15.52 19.0601C15.52 20.7101 14.17 22.0601 12.52 22.0601C11.7 22.0601 10.94 21.7201 10.4 21.1801C9.86002 20.6401 9.52002 19.8801 9.52002 19.0601" stroke="#666666" stroke-width="1.5" stroke-miterlimit="10"/>
</g>
</g>
</svg>
